<svg width="35" height="35" viewBox="0 0 35 35" fill="none" xmlns="http://www.w3.org/2000/svg">
<rect width="35" height="35" rx="17.5" fill="#D07913" fill-opacity="0.15"/>
<g clip-path="url(#clip0_2006_6254)">
<path d="M24.8337 24.3375H23.9941V20.0713C23.9941 19.9589 23.9029 19.8677 23.7904 19.8677H22.8428V16.608L22.942 16.649C22.993 16.6701 23.0457 16.6801 23.0976 16.6801C23.2573 16.6801 23.4089 16.5854 23.4738 16.4287L24.0532 15.0295C24.0944 14.9297 24.0944 14.8177 24.0531 14.7179C24.0118 14.6182 23.9326 14.539 23.8328 14.4977L15.0344 10.8547C15.356 10.2415 15.6449 9.6167 15.8933 8.99789C15.9763 8.79084 15.8773 8.55551 15.6712 8.47023L12.1957 7.03108C11.9898 6.94572 11.7532 7.04216 11.6656 7.24734C10.8051 9.26255 10.25 11.5085 9.91872 14.3155C9.89735 14.4965 9.99892 14.6696 10.1673 14.7394L11.657 15.3561C11.8251 15.4258 12.0194 15.3752 12.1323 15.2321C12.7784 14.4127 13.3362 13.6431 13.8375 12.8793L15.5961 13.6075L15.5096 14.2068L15.2474 16.0219L14.0467 24.3375H11.2359H9.16654C8.94177 24.3375 8.75952 24.5196 8.75952 24.7445V26.593C8.75952 26.8178 8.94177 27 9.16654 27H24.8337C25.0584 27 25.2407 26.8178 25.2407 26.593V24.7445C25.2407 24.5196 25.0584 24.3375 24.8337 24.3375ZM22.0288 19.8677H21.0812C20.9687 19.8677 20.8775 19.9589 20.8775 20.0713V24.3375H19.9535L18.7527 16.0219L18.5827 14.8441L22.0287 16.2709V19.8677H22.0288ZM18.0081 17.1108L16.5775 16.0437L17.7152 15.0821L18.0081 17.1108ZM17.5305 17.8682L15.7162 19.0217L16.0431 16.7585L17.5305 17.8682ZM18.208 18.4954L18.645 21.5222L16.2902 19.7147L18.208 18.4954ZM16.4622 24.3375L18.8063 22.639L19.0516 24.3375H16.4622ZM17.2614 14.2969L16.2785 15.1275L16.4471 13.9598L17.2614 14.2969ZM15.5371 20.2619L17.9787 22.1361L14.9496 24.3309L15.5371 20.2619Z" fill="#D07913"/>
</g>
<defs>
<clipPath id="clip0_2006_6254">
<rect width="20" height="20" fill="white" transform="translate(7 7)"/>
</clipPath>
</defs>
</svg>
