<svg width="35" height="35" viewBox="0 0 35 35" fill="none" xmlns="http://www.w3.org/2000/svg">
<rect width="35" height="35" rx="17.5" fill="#20CA6E" fill-opacity="0.15"/>
<g clip-path="url(#clip0_2006_6220)">
<path d="M17 9C14.5837 9 12.625 10.9587 12.625 13.375C12.625 15.3285 15.4844 18.8889 16.5799 20.1813C16.8017 20.4431 17.1986 20.4431 17.4201 20.1813C18.5156 18.8889 21.375 15.3285 21.375 13.375C21.375 10.9587 19.4163 9 17 9ZM17 14.8333C16.1944 14.8333 15.5417 14.1806 15.5417 13.375C15.5417 12.5694 16.1944 11.9167 17 11.9167C17.8056 11.9167 18.4583 12.5694 18.4583 13.375C18.4583 14.1806 17.8056 14.8333 17 14.8333ZM7.69861 16.4983C7.49242 16.5807 7.31567 16.7231 7.19115 16.907C7.06663 17.0908 7.00005 17.3078 7 17.5299V26.2215C7 26.6146 7.39688 26.8833 7.76181 26.7375L12.5556 24.5556V16.4625C12.2486 15.9076 11.9976 15.3674 11.8177 14.8507L7.69861 16.4983ZM17 21.4885C16.5115 21.4885 16.0493 21.274 15.7323 20.8997C15.0497 20.0941 14.3236 19.1767 13.6667 18.2358V24.5552L20.3333 26.7774V18.2361C19.6764 19.1767 18.9507 20.0944 18.2677 20.9C17.9507 21.274 17.4885 21.4885 17 21.4885ZM26.2382 14.5958L21.4444 16.7778V26.7778L26.3014 24.8351C26.5076 24.7526 26.6844 24.6103 26.8089 24.4264C26.9334 24.2425 27 24.0256 27 23.8035V15.1118C27 14.7188 26.6031 14.45 26.2382 14.5958Z" fill="#20CA6E"/>
</g>
<defs>
<clipPath id="clip0_2006_6220">
<rect width="20" height="17.7778" fill="white" transform="translate(7 9)"/>
</clipPath>
</defs>
</svg>
