<svg width="35" height="35" viewBox="0 0 35 35" fill="none" xmlns="http://www.w3.org/2000/svg">
<rect width="35" height="35" rx="17.5" fill="#FFDD09" fill-opacity="0.15"/>
<g clip-path="url(#clip0_2337_2818)">
<path d="M20.6455 26.6505H25.97V19.9949H20.6455V26.6505Z" fill="#FFDD09"/>
<path d="M25.97 15.7354V13.3394H20.6455V15.7354C21.178 15.9018 21.7437 16.0016 22.3094 16.0016H22.4758L21.9766 16.9999L22.4758 17.9982H22.3094C21.7437 17.9982 21.1779 18.0981 20.6455 18.2645V19.9949H25.97V18.2645C25.4375 18.0981 24.8718 17.9982 24.3061 17.9982H24.1397L24.6388 16.9999L24.1397 16.0016H24.3061C24.8718 16.0016 25.4375 15.9018 25.97 15.7354Z" fill="#FFDD09"/>
<path d="M20.6455 13.3394H25.97V7.34937H20.6455V13.3394Z" fill="#FFDD09"/>
<path d="M25.3037 26.6508H25.9693V7.34961H25.3037V26.6508Z" fill="#C48225"/>
<path d="M20.6455 26.6508H21.3111V7.34961H20.6455V26.6508Z" fill="white"/>
<path d="M21.9765 17L22.4756 16.0017H22.3092C21.444 16.0017 20.5788 15.802 19.7801 15.4027C19.414 15.203 18.9814 15.5025 18.9814 15.9018V18.0982C18.9814 18.4975 19.414 18.7637 19.7801 18.5973C20.5788 18.198 21.444 17.9983 22.3092 17.9983H22.4756L21.9765 17Z" fill="#FCC309"/>
<path d="M24.6388 17L24.1396 17.9984H24.306C25.1713 17.9984 26.0365 18.198 26.8352 18.5973C27.2012 18.797 27.6338 18.4975 27.6338 18.0982V15.9018C27.6338 15.5025 27.2012 15.2363 26.8352 15.4027C26.0365 15.802 25.1713 16.0017 24.306 16.0017H24.1396L24.6388 17Z" fill="#FCC309"/>
<path d="M26.8352 15.4027C26.8019 15.436 26.7686 15.436 26.7354 15.436C26.8684 15.5358 26.9683 15.7022 26.9683 15.9019V18.0982C26.9683 18.2979 26.8684 18.431 26.7354 18.5308C26.7686 18.5308 26.8019 18.5641 26.8352 18.5641C27.2012 18.7637 27.6338 18.4642 27.6338 18.0649V15.8686C27.6338 15.5025 27.2012 15.2364 26.8352 15.4027Z" fill="#C48225"/>
<path d="M19.7801 15.4027C19.8134 15.436 19.8467 15.436 19.8799 15.436C19.7468 15.5358 19.647 15.7022 19.647 15.9019V18.0982C19.647 18.2979 19.7468 18.431 19.8799 18.5308C19.8467 18.5308 19.8134 18.5641 19.7801 18.5641C19.414 18.7637 18.9814 18.4642 18.9814 18.0649V15.8686C18.9814 15.5025 19.414 15.2364 19.7801 15.4027Z" fill="white"/>
<path d="M24.6388 17.0001L23.9732 18.3312H22.6421L21.9766 17.0001L22.6421 15.6689H23.9732L24.6388 17.0001Z" fill="#C48225"/>
<path d="M21.9766 11.0101H24.6388V8.68066H21.9766V11.0101Z" fill="#54C9FD"/>
<path d="M23.6406 11.0101H24.6389V8.68066H23.6406V11.0101Z" fill="#33A9F8"/>
<path d="M9.99707 26.6505H15.3215V19.9949H9.99707V26.6505Z" fill="#FFDD09"/>
<path d="M15.3215 15.7354V13.3394H9.99707V15.7354C10.5295 15.9018 11.0952 16.0016 11.661 16.0016H11.8274L11.3282 16.9999L11.8274 17.9982H11.661C11.0952 17.9982 10.5295 18.0981 9.99707 18.2645V19.9949H15.3215V18.2645C14.7891 18.0981 14.2234 17.9982 13.6576 17.9982H13.4912L13.9904 16.9999L13.4912 16.0016H13.6576C14.2233 16.0016 14.7891 15.9018 15.3215 15.7354Z" fill="#FFDD09"/>
<path d="M9.99707 13.3394H15.3215V7.34937H9.99707V13.3394Z" fill="#FFDD09"/>
<path d="M14.6553 26.6508H15.3208V7.34961H14.6553V26.6508Z" fill="#C48225"/>
<path d="M9.99707 26.6508H10.6626V7.34961H9.99707V26.6508Z" fill="white"/>
<path d="M11.328 17L11.8272 16.0017H11.6608C10.7956 16.0017 9.93032 15.802 9.13167 15.4027C8.7656 15.203 8.33301 15.4693 8.33301 15.9018V18.0982C8.33301 18.4975 8.7656 18.7638 9.13167 18.5974C9.93032 18.198 10.7956 17.9984 11.6608 17.9984H11.8272L11.328 17Z" fill="#FCC309"/>
<path d="M13.9904 17L13.4912 17.9984H13.6576C14.5228 17.9984 15.3881 18.198 16.1867 18.5973C16.5528 18.797 16.9854 18.4975 16.9854 18.0982V15.9018C16.9854 15.5025 16.5528 15.2363 16.1867 15.4027C15.3881 15.802 14.5228 16.0017 13.6576 16.0017H13.4912L13.9904 17Z" fill="#FCC309"/>
<path d="M16.1867 15.4027C16.1535 15.436 16.1202 15.436 16.0869 15.436C16.22 15.5358 16.3198 15.7022 16.3198 15.9019V18.0982C16.3198 18.2979 16.22 18.431 16.0869 18.5308C16.1202 18.5308 16.1535 18.5641 16.1867 18.5641C16.5528 18.7637 16.9854 18.4642 16.9854 18.0649V15.8686C16.9854 15.5025 16.5528 15.2364 16.1867 15.4027Z" fill="#C48225"/>
<path d="M9.13167 15.4027C9.16493 15.4359 9.19823 15.4359 9.2315 15.4359C9.0984 15.569 8.99857 15.7354 8.99857 15.9018V18.0982C8.99857 18.2978 9.0984 18.4309 9.2315 18.5308C9.19823 18.5308 9.16493 18.564 9.13167 18.564C8.7656 18.797 8.33301 18.5308 8.33301 18.0981V15.9018C8.33297 15.5025 8.7656 15.2363 9.13167 15.4027Z" fill="white"/>
<path d="M13.9904 17.0001L13.3248 18.3312H11.9937L11.3281 17.0001L11.9937 15.6689H13.3248L13.9904 17.0001Z" fill="#C48225"/>
<path d="M11.3281 11.0101H13.9904V8.68066H11.3281V11.0101Z" fill="#54C9FD"/>
<path d="M12.9922 11.0101H13.9905V8.68066H12.9922V11.0101Z" fill="#33A9F8"/>
<path d="M15.3213 13.6722H9.99682C9.79716 13.6722 9.66406 13.5391 9.66406 13.3394V7.34936C9.66406 7.1497 9.79716 7.0166 9.99682 7.0166H15.3213C15.5209 7.0166 15.654 7.1497 15.654 7.34936V13.3394C15.654 13.539 15.5209 13.6722 15.3213 13.6722ZM10.3296 13.0066H14.9885V7.68216H10.3296V13.0066Z" fill="#675D5D"/>
<path d="M15.3213 26.9835H9.99682C9.79716 26.9835 9.66406 26.8504 9.66406 26.6507V19.9951C9.66406 19.7955 9.79716 19.6624 9.99682 19.6624H15.3213C15.5209 19.6624 15.654 19.7955 15.654 19.9951V26.6507C15.654 26.8504 15.5209 26.9835 15.3213 26.9835ZM10.3296 26.3179H14.9885V20.3279H10.3296V26.3179Z" fill="#675D5D"/>
<path d="M13.9901 11.3429H11.3279C11.1282 11.3429 10.9951 11.2098 10.9951 11.0101V8.68066C10.9951 8.481 11.1282 8.3479 11.3279 8.3479H13.9901C14.1898 8.3479 14.3229 8.481 14.3229 8.68066V11.0101C14.3229 11.2098 14.1898 11.3429 13.9901 11.3429ZM11.6607 10.6773H13.6574V9.01342H11.6607V10.6773Z" fill="#675D5D"/>
<path d="M13.3241 18.664H11.9929C11.8598 18.664 11.76 18.5974 11.6934 18.4976L11.0279 17.1665C10.9946 17.0666 10.9946 16.9668 11.0279 16.867L11.6934 15.5358C11.76 15.436 11.8598 15.3362 11.9929 15.3362H13.3241C13.4572 15.3362 13.557 15.4028 13.6236 15.5358L14.2891 16.867C14.3224 16.9668 14.3224 17.0666 14.2891 17.1665L13.6236 18.4976C13.557 18.5641 13.4572 18.664 13.3241 18.664ZM12.1926 17.9984H13.1244L13.6236 17.0001L13.1244 16.0017H12.1926L11.6934 17.0001L12.1926 17.9984Z" fill="#675D5D"/>
<path d="M8.89849 18.9636C8.73209 18.9636 8.56573 18.9303 8.43259 18.8305C8.1664 18.6641 8 18.3979 8 18.0984V15.902C8 15.6025 8.1664 15.303 8.43259 15.1366C8.69879 14.9702 9.03159 14.9702 9.29782 15.1034C10.0299 15.4694 10.8619 15.6691 11.6605 15.6691H11.8269C11.9268 15.6691 12.0599 15.7357 12.0932 15.8355C12.1597 15.9353 12.1597 16.0684 12.0932 16.1683L11.6938 17.0002L12.1264 17.8322C12.193 17.932 12.1597 18.0651 12.1264 18.1649C12.0599 18.2648 11.96 18.3313 11.8269 18.3313H11.6605C10.8286 18.3313 9.99665 18.531 9.26452 18.8971C9.16472 18.9303 9.03163 18.9636 8.89849 18.9636ZM8.89849 15.6691C8.83192 15.6691 8.79866 15.7024 8.76539 15.7024C8.73213 15.7024 8.66556 15.7689 8.66556 15.902V18.0984C8.66556 18.1982 8.73213 18.2648 8.76539 18.298C8.79866 18.3313 8.86523 18.3646 8.96506 18.298C9.69719 17.932 10.4625 17.7323 11.2612 17.6657L10.995 17.1666C10.9617 17.0667 10.9617 16.9669 10.995 16.8671L11.2612 16.3346C10.4626 16.3014 9.66388 16.0684 8.93179 15.7023C8.96506 15.6691 8.93179 15.6691 8.89849 15.6691Z" fill="#675D5D"/>
<path d="M16.4527 18.9967C16.3196 18.9967 16.1865 18.9634 16.0534 18.8969C15.3212 18.5308 14.4893 18.3311 13.6574 18.3311H13.491C13.3911 18.3311 13.258 18.2646 13.2247 18.1647C13.1582 18.0649 13.1582 17.9318 13.2247 17.832L13.6573 16.9667L13.2248 16.1348C13.1582 16.0349 13.1915 15.9019 13.2248 15.802C13.2913 15.7022 13.3912 15.6356 13.5243 15.6356H13.6574C14.4893 15.6356 15.288 15.436 16.0534 15.0699C16.3196 14.9368 16.6524 14.9368 16.9186 15.1032C17.1848 15.2696 17.3512 15.5357 17.3512 15.8685V18.0649C17.3512 18.3644 17.1848 18.6639 16.9186 18.8303C16.7522 18.9301 16.5858 18.9967 16.4527 18.9967ZM14.0234 17.6656C14.8221 17.7321 15.6208 17.9318 16.3529 18.2979C16.4527 18.3311 16.5525 18.2979 16.5525 18.2979C16.5525 18.2979 16.6524 18.2313 16.6524 18.0982V15.9019C16.6524 15.802 16.5858 15.7355 16.5525 15.7022C16.5193 15.6689 16.4527 15.6356 16.3529 15.7022C15.6207 16.0683 14.8554 16.2679 14.0567 16.3345L14.3229 16.8336C14.3562 16.9335 14.3562 17.0333 14.3229 17.1331L14.0234 17.6656Z" fill="#675D5D"/>
<path d="M15.3213 20.3279H9.99682C9.79716 20.3279 9.66406 20.1948 9.66406 19.9952V18.2315C9.66406 18.0984 9.76389 17.9652 9.89699 17.8987C10.3629 17.7656 10.8288 17.6658 11.2946 17.6325L11.0284 17.1333C10.9951 17.0335 10.9951 16.9336 11.0284 16.8338L11.2946 16.3013C10.8287 16.2681 10.3628 16.2015 9.89699 16.0351C9.76389 16.0018 9.66406 15.8687 9.66406 15.7356V13.3396C9.66406 13.1399 9.79716 13.0068 9.99682 13.0068H15.3213C15.5209 13.0068 15.654 13.1399 15.654 13.3396V15.7356C15.654 15.8687 15.5542 16.0018 15.4211 16.0684C14.9552 16.2015 14.4893 16.3013 14.0235 16.3346L14.2897 16.8338C14.323 16.9336 14.323 17.0334 14.2897 17.1333L14.0235 17.6657C14.4894 17.699 14.9553 17.7656 15.4211 17.932C15.5542 17.9652 15.654 18.0984 15.654 18.2647V19.9952C15.654 20.1948 15.5209 20.3279 15.3213 20.3279ZM10.3296 19.6624H14.9885V18.4977C14.5559 18.3978 14.09 18.3313 13.6574 18.3313H13.491C13.3911 18.3313 13.258 18.2647 13.2247 18.1649C13.1915 18.065 13.1582 17.9319 13.2247 17.8321L13.6573 16.9669L13.2248 16.1349C13.1582 16.0351 13.1915 15.902 13.2248 15.8022C13.2913 15.7023 13.3912 15.6358 13.5243 15.6358H13.6574C14.1233 15.6358 14.5558 15.5692 14.9885 15.4694V13.6724H10.3296V15.4694C10.7622 15.5692 11.2281 15.6358 11.6607 15.6358H11.8271C11.9269 15.6358 12.06 15.7023 12.0933 15.8022C12.1599 15.902 12.1599 16.0351 12.0933 16.1349L11.694 17.0002L12.1266 17.8321C12.1932 17.932 12.1599 18.0651 12.1266 18.1649C12.06 18.2647 11.9602 18.3313 11.8271 18.3313H11.6607C11.1948 18.3313 10.7622 18.3979 10.3296 18.4977V19.6624Z" fill="#675D5D"/>
<path d="M25.9697 13.6722H20.6453C20.4456 13.6722 20.3125 13.5391 20.3125 13.3394V7.34936C20.3125 7.1497 20.4456 7.0166 20.6453 7.0166H25.9697C26.1694 7.0166 26.3025 7.1497 26.3025 7.34936V13.3394C26.3025 13.539 26.1694 13.6722 25.9697 13.6722ZM20.978 13.0066H25.6369V7.68216H20.978V13.0066Z" fill="#675D5D"/>
<path d="M25.9697 26.9835H20.6453C20.4456 26.9835 20.3125 26.8504 20.3125 26.6507V19.9951C20.3125 19.7955 20.4456 19.6624 20.6453 19.6624H25.9697C26.1694 19.6624 26.3025 19.7955 26.3025 19.9951V26.6507C26.3025 26.8504 26.1694 26.9835 25.9697 26.9835ZM20.978 26.3179H25.6369V20.3279H20.978V26.3179Z" fill="#675D5D"/>
<path d="M24.6395 11.3429H21.9773C21.7776 11.3429 21.6445 11.2098 21.6445 11.0101V8.68066C21.6445 8.481 21.7776 8.3479 21.9773 8.3479H24.6395C24.8392 8.3479 24.9723 8.481 24.9723 8.68066V11.0101C24.9723 11.2098 24.8392 11.3429 24.6395 11.3429ZM22.3101 10.6773H24.3068V9.01342H22.3101V10.6773Z" fill="#675D5D"/>
<path d="M23.9725 18.664H22.6414C22.5083 18.664 22.4084 18.5974 22.3419 18.4976L21.6763 17.1665C21.6431 17.0666 21.6431 16.9668 21.6763 16.867L22.3419 15.5358C22.4084 15.436 22.5083 15.3362 22.6414 15.3362H23.9725C24.1056 15.3362 24.2054 15.4028 24.272 15.5358L24.9376 16.867C24.9708 16.9668 24.9708 17.0666 24.9376 17.1665L24.272 18.4976C24.2055 18.5641 24.1056 18.664 23.9725 18.664ZM22.8411 17.9984H23.7729L24.272 17.0001L23.7729 16.0017H22.8411L22.3419 17.0001L22.8411 17.9984Z" fill="#675D5D"/>
<path d="M19.5469 18.9636C19.3805 18.9636 19.2142 18.9303 19.081 18.8305C18.8148 18.6641 18.6484 18.3979 18.6484 18.0984V15.902C18.6484 15.6025 18.8148 15.303 19.081 15.1366C19.3472 14.9702 19.68 14.9702 19.9463 15.1034C20.6784 15.4694 21.5103 15.6691 22.3423 15.6691H22.5087C22.6085 15.6691 22.7416 15.7357 22.7749 15.8355C22.8415 15.9353 22.8415 16.0684 22.7749 16.1683L22.3423 17.0002L22.7749 17.8322C22.8415 17.932 22.8082 18.0651 22.7749 18.1649C22.7083 18.2648 22.6085 18.3313 22.4754 18.3313H22.309C21.477 18.3313 20.6451 18.531 19.913 18.8971C19.8132 18.9303 19.6801 18.9636 19.5469 18.9636ZM19.5469 15.6691C19.4804 15.6691 19.4471 15.7024 19.4138 15.7024C19.3806 15.7356 19.314 15.7689 19.314 15.902V18.0984C19.314 18.1982 19.3806 18.2648 19.4138 18.298C19.4471 18.3313 19.5137 18.3646 19.6135 18.298C20.3456 17.932 21.111 17.7323 21.9097 17.6657L21.6434 17.1666C21.6102 17.0667 21.6102 16.9669 21.6434 16.8671L21.9097 16.3346C21.111 16.268 20.3123 16.0684 19.5802 15.7023C19.6135 15.6691 19.5802 15.6691 19.5469 15.6691Z" fill="#675D5D"/>
<path d="M27.1014 18.9967C26.9683 18.9967 26.8351 18.9634 26.702 18.8969C25.9699 18.5308 25.138 18.3311 24.306 18.3311H24.1396C24.0398 18.3311 23.9067 18.2646 23.8734 18.1647C23.8401 18.0649 23.8068 17.9318 23.8734 17.832L24.306 16.9667L23.8734 16.1348C23.8068 16.0349 23.8401 15.9019 23.8734 15.802C23.94 15.7022 24.0398 15.6356 24.1729 15.6356H24.306C25.1379 15.6356 25.9366 15.436 26.702 15.0699C26.9682 14.9368 27.301 14.9368 27.5672 15.1032C27.8335 15.2696 27.9998 15.5357 27.9998 15.8685V18.0649C27.9998 18.3644 27.8334 18.6639 27.5672 18.8303C27.4009 18.9301 27.2345 18.9967 27.1014 18.9967ZM24.672 17.6656C25.4707 17.7321 26.2694 17.9318 27.0015 18.2979C27.1013 18.3311 27.2012 18.2979 27.2012 18.2979C27.2344 18.2646 27.301 18.2313 27.301 18.0982V15.9019C27.301 15.802 27.2344 15.7355 27.2012 15.7022C27.1679 15.6689 27.1013 15.6356 27.0015 15.7022C26.2694 16.0683 25.504 16.2679 24.7053 16.3345L24.9715 16.8336C25.0048 16.9335 25.0048 17.0333 24.9715 17.1331L24.672 17.6656Z" fill="#675D5D"/>
<path d="M25.9697 20.3279H20.6453C20.4456 20.3279 20.3125 20.1948 20.3125 19.9951V18.2314C20.3125 18.0983 20.4123 17.9652 20.5454 17.8987C21.0113 17.7656 21.4772 17.6657 21.9431 17.6324L21.6768 17.1333C21.6436 17.0334 21.6436 16.9336 21.6768 16.8338L21.9431 16.3013C21.4772 16.268 21.0113 16.2015 20.5454 16.0351C20.4123 16.0018 20.3125 15.8687 20.3125 15.7023V13.3396C20.3125 13.1399 20.4456 13.0068 20.6453 13.0068H25.9697C26.1694 13.0068 26.3025 13.1399 26.3025 13.3396V15.7356C26.3025 15.8687 26.2026 16.0018 26.0695 16.0684C25.6037 16.2015 25.1378 16.3013 24.6719 16.3346L24.9381 16.8338C24.9714 16.9336 24.9714 17.0334 24.9381 17.1333L24.6719 17.6657C25.1378 17.699 25.6037 17.7656 26.0695 17.932C26.2026 17.9652 26.3025 18.0984 26.3025 18.2647V19.9952C26.3025 20.1948 26.1694 20.3279 25.9697 20.3279ZM20.978 19.6623H25.6369V18.4976C25.2043 18.3978 24.7384 18.3312 24.3058 18.3312H24.1394C24.0396 18.3312 23.9065 18.2646 23.8732 18.1648C23.8399 18.065 23.8066 17.9319 23.8732 17.832L24.3058 16.9668L23.8732 16.1349C23.8066 16.0351 23.8399 15.902 23.8732 15.8021C23.9398 15.7023 24.0396 15.6357 24.1727 15.6357H24.3058C24.7717 15.6357 25.2043 15.5692 25.6369 15.4693V13.6723H20.978V15.4693C21.4106 15.5692 21.8765 15.6357 22.3091 15.6357H22.4755C22.5754 15.6357 22.7085 15.7023 22.7418 15.8021C22.8083 15.902 22.8083 16.0351 22.7418 16.1349L22.3424 17.0001L22.775 17.8321C22.8416 17.9319 22.8083 18.065 22.775 18.1649C22.7085 18.2647 22.6086 18.3313 22.4755 18.3313H22.3091C21.8432 18.3313 21.4107 18.3978 20.978 18.4977V19.6623Z" fill="#675D5D"/>
</g>
<defs>
<clipPath id="clip0_2337_2818">
<rect width="20" height="20" fill="white" transform="translate(8 7)"/>
</clipPath>
</defs>
</svg>
