<svg width="35" height="35" viewBox="0 0 35 35" fill="none" xmlns="http://www.w3.org/2000/svg">
<g clip-path="url(#clip0_2342_4363)">
<path d="M17.5 35.0001C27.165 35.0001 35.0001 27.165 35.0001 17.5C35.0001 7.83503 27.165 0 17.5 0C7.83503 0 0 7.83503 0 17.5C0 27.165 7.83503 35.0001 17.5 35.0001Z" fill="#E3AA24" fill-opacity="0.2"/>
<path d="M13.7465 12.4661C15.1223 8.88843 14.8573 3.48096 14.8573 3.48096C14.8573 3.48096 18.5159 5.01402 21.0419 9.22364C23.4161 13.1804 21.1731 19.0751 21.1731 19.0751C22.9222 17.3254 23.5706 15.576 23.6299 13.4753C25.5949 16.6119 27.1131 20.2064 27.1131 23.8437C27.1131 28.344 23.0209 31.9883 17.9677 31.9908C12.9166 31.988 8.82227 28.344 8.82227 23.8437C8.82227 19.4637 12.1241 16.6851 13.7465 12.4661Z" fill="#E17A2D" fill-opacity="0.8"/>
<g opacity="0.8">
<path d="M15.5416 20.1304C16.2965 17.9604 16.1515 14.6809 16.1515 14.6809C16.1515 14.6809 23.3977 20.1956 22.8815 27.0307C22.6754 29.7525 20.6347 31.9704 17.859 31.972C15.0854 31.9704 12.8369 29.7603 12.8369 27.0307C12.8372 24.3743 14.6505 22.6892 15.5416 20.1304Z" fill="#F4E028" fill-opacity="0.8"/>
</g>
<g opacity="0.8">
<path d="M16.3964 24.3758C16.875 23.0008 16.7827 20.9231 16.7827 20.9231C16.7827 20.9231 21.3739 24.4176 21.047 28.7485C20.9163 30.4728 19.6234 31.8777 17.8648 31.879C16.1076 31.8776 14.6826 30.4775 14.6826 28.7485C14.6829 27.0648 15.8324 25.9971 16.3964 24.3758Z" fill="white"/>
</g>
</g>
<defs>
<clipPath id="clip0_2342_4363">
<rect width="35" height="35" fill="white"/>
</clipPath>
</defs>
</svg>
