<svg width="35" height="35" viewBox="0 0 35 35" fill="none" xmlns="http://www.w3.org/2000/svg">
<rect width="35" height="35" rx="17.5" fill="#30C1E1" fill-opacity="0.15"/>
<g clip-path="url(#clip0_2337_2860)">
<path d="M13.3994 17.2966H10.9398C10.6521 17.2966 10.4189 17.5298 10.4189 17.8175V18.5108V18.6566V19.35C10.4189 19.359 10.4198 19.3677 10.4202 19.3766H13.9189C13.9193 19.3677 13.9202 19.359 13.9202 19.35V18.6566V18.5108V17.8175C13.9202 17.5298 13.687 17.2966 13.3994 17.2966Z" fill="#CCC3A8"/>
<path d="M11.287 18.6567V18.5109V17.8175C11.287 17.5298 11.5202 17.2966 11.8079 17.2966H10.9398C10.6521 17.2966 10.4189 17.5298 10.4189 17.8175V18.5108V18.6566V19.35C10.4189 19.359 10.4198 19.3677 10.4202 19.3766H11.2883C11.2879 19.3677 11.287 19.359 11.287 19.35V18.6567Z" fill="#C9B585"/>
<path d="M15.1546 18.6833H10.2597H9.69273C9.40504 18.6833 9.17188 18.9166 9.17188 19.2042V20.2914V25.7782V26.8655H9.73887H15.1546H15.7216V25.7782V19.7706V18.6833H15.1546Z" fill="#5DC0F7"/>
<path d="M10.04 20.2914V19.2042C10.04 18.9166 10.2731 18.6833 10.5608 18.6833H10.2597H9.69273C9.40504 18.6833 9.17188 18.9166 9.17188 19.2042V20.2914V25.7782V26.8655H9.73887H10.04V25.7782V20.2914H10.04Z" fill="#8BC9A4"/>
<path d="M24.3438 7H23.5992H22.4273H21.9643H21.8842H19.8808H19.5048H17.4212C17.1336 7 16.9004 7.2332 16.9004 7.52086V7.98891V8.35996V8.82801C16.9004 8.83707 16.9013 8.84582 16.9017 8.85469H18.9852H20.4003H21.3647H22.4838H24.8633C24.8638 8.84578 24.8646 8.83707 24.8646 8.82801V8.35996V7.98891V7.52086C24.8646 7.2332 24.6314 7 24.3438 7Z" fill="#CCC3A8"/>
<path d="M17.7685 8.35996V7.98891V7.52086C17.7685 7.2332 18.0017 7 18.2893 7H17.4212C17.1336 7 16.9004 7.2332 16.9004 7.52086V7.98891V8.35996V8.82801C16.9004 8.83707 16.9013 8.84582 16.9017 8.85469H17.7698C17.7694 8.84578 17.7685 8.83707 17.7685 8.82801V8.35996Z" fill="#C9B585"/>
<path d="M15.1546 20.4233H9.73883H9.17188V21.8099H9.73883H15.1546H15.7216V20.4233H15.1546Z" fill="#FFB92E"/>
<path d="M9.96484 20.4233H9.24699H9.17188V21.8099H9.24699H9.96484H10.04V20.4233H9.96484Z" fill="#EF9A1D"/>
<path d="M23.5991 8.39941H21.125V26.3551H23.5991V8.39941Z" fill="#8BD8F7"/>
<path d="M25.0196 8.38647H16.7541C15.8705 8.38647 15.1543 9.10265 15.1543 9.98624V10.7074V25.7782V26.4993H26.6194V25.7782V12.797V12.0759V11.7118V10.9907V10.7075V9.98628C26.6195 9.10265 25.9032 8.38647 25.0196 8.38647Z" fill="#36A1CB"/>
<path d="M23.5995 7.67041C23.4196 7.67041 23.2739 7.81611 23.2739 7.99596V8.07377H21.4509V7.99596C21.4509 7.81611 21.3052 7.67041 21.1254 7.67041C20.9455 7.67041 20.7998 7.81611 20.7998 7.99596V8.39932V9.21127V9.88838V11.3775V12.8667C20.7998 12.8739 20.8004 12.881 20.8009 12.8881C20.8004 12.8953 20.7998 12.9024 20.7998 12.9096V14.3987V15.8879V17.3771V18.8663C20.7998 18.8735 20.8004 18.8806 20.8009 18.8877C20.8004 18.8948 20.7998 18.9019 20.7998 18.9092V20.3983V21.8875V23.3767V24.8658V26.355C20.7998 26.5348 20.9455 26.6806 21.1254 26.6806H23.5994C23.7792 26.6806 23.925 26.5348 23.925 26.355V24.8658V23.3767V21.8874V20.3982V18.909C23.925 18.9018 23.9243 18.8947 23.9239 18.8876C23.9243 18.8805 23.925 18.8734 23.925 18.8662V17.3769V15.8878V14.3986V12.9095C23.925 12.9022 23.9243 12.8951 23.9239 12.888C23.9243 12.8808 23.925 12.8738 23.925 12.8665V11.3774V9.88838V9.25068V8.39932V7.99596C23.925 7.81615 23.7792 7.67041 23.5995 7.67041ZM23.2739 26.0292H21.4509V25.1911H23.2739V26.0292ZM23.2739 24.54H21.4509V23.702H23.2739V24.54ZM23.2739 23.051H21.4509V22.2129H23.2739V23.051ZM23.2739 21.5618H21.4509V20.7237H23.2739V21.5618ZM23.2739 20.0727H21.4509V19.2346H23.2739V20.0727ZM23.2739 18.5406H21.4509V17.7024H23.2739V18.5406ZM23.2739 17.0514H21.4509V16.2134H23.2739V17.0514ZM23.2739 15.5624H21.4509V14.7242H23.2739V15.5624ZM23.2739 14.0731H21.4509V13.2351H23.2739V14.0731ZM23.2739 12.5411H21.4509V11.703H23.2739V12.5411ZM23.2739 11.0519H21.4509V10.2139H23.2739V11.0519ZM23.2739 9.25068V9.56279H21.4509V9.21123V8.72486H23.2739V9.25068Z" fill="#7C7A75" fill-opacity="0.5"/>
<path d="M16.0224 10.7076V9.98648C16.0224 9.10289 16.7386 8.38672 17.6221 8.38672H16.7541C15.8705 8.38672 15.1543 9.10289 15.1543 9.98648V10.7076V25.7784V26.4996H16.0223V25.7784V10.7076H16.0224Z" fill="#5DC0F7"/>
<path d="M21.4473 7.94995V26.6805H22.3154V26.0294H21.4509V25.1912H22.3154V24.5401H21.4509V23.7021H22.3154V23.0511H21.4509V22.213H22.3154V21.562H21.4509V20.7239H22.3154V20.0728H21.4509V19.2348H22.3154V18.5407H21.4509V17.7025H22.3154V17.0515H21.4509V16.2135H22.3154V15.5624H21.4509V14.7242H22.3154V14.0732H21.4509V13.2352H22.3154V12.5412H21.4509V11.7031H22.3154V11.0521H21.4509V10.2141H22.3154V9.563H21.4509V9.21144V8.72499H22.3154V8.0739H21.4509V7.99608C21.4509 7.98038 21.4494 7.96503 21.4473 7.94995Z" fill="#ADABA7" fill-opacity="0.46"/>
<path d="M27.4388 25.7783H24.169H11.8304H8.56059C8.26016 25.7783 8.0166 26.0219 8.0166 26.3223V26.456C8.01656 26.7564 8.26012 27 8.56059 27H11.8304H23.5011H24.6007H27.4388C27.7392 27 27.9828 26.7564 27.9828 26.456V26.3223C27.9828 26.0219 27.7392 25.7783 27.4388 25.7783Z" fill="#CCC3A8"/>
<path d="M8.88469 26.456V26.3223C8.88469 26.0219 9.12824 25.7783 9.42867 25.7783H8.56059C8.26016 25.7783 8.0166 26.0219 8.0166 26.3223V26.456C8.0166 26.7564 8.26016 27 8.56059 27H9.42867C9.12828 27 8.88469 26.7564 8.88469 26.456Z" fill="#C9B585"/>
</g>
<defs>
<clipPath id="clip0_2337_2860">
<rect width="20" height="20" fill="white" transform="translate(8 7)"/>
</clipPath>
</defs>
</svg>
