<svg width="35" height="35" viewBox="0 0 35 35" fill="none" xmlns="http://www.w3.org/2000/svg">
<rect width="35" height="35" rx="17.5" fill="#30C1E1" fill-opacity="0.15"/>
<g clip-path="url(#clip0_2006_6276)">
<path d="M11.7602 7.50464C11.7602 7.50464 9.22109 9.61401 9.22109 12.1531C9.22109 13.7281 10.3586 15.0046 11.7602 15.0046C13.1625 15.0046 14.2992 13.7281 14.2992 12.1531C14.2992 9.61401 11.7602 7.50464 11.7602 7.50464ZM11.7602 14.096C11.0484 14.096 10.4711 13.4476 10.4711 12.6484C10.4711 11.3593 11.7602 10.2882 11.7602 10.2882C11.7602 10.2882 13.0492 11.3593 13.0492 12.6484C13.0492 13.4476 12.4727 14.096 11.7602 14.096ZM27.4531 20.2812H24.527C23.8209 18.8369 22.3369 17.8396 20.6238 17.8396C18.9108 17.8396 17.4267 18.8369 16.7206 20.2812H14.543C14.0375 20.2812 13.625 19.8695 13.625 19.3632V18.4062H14.875V15.5937H8.625V18.4062H9.79688V19.3632C9.79688 22.1817 11.9649 24.1093 14.543 24.1093H16.7345C17.4459 25.5388 18.9216 26.5238 20.6238 26.5238C22.326 26.5238 23.8017 25.5388 24.5131 24.1093H27.4531V20.2812ZM23.662 21.6093H22.3756C22.1341 20.8726 21.4399 20.339 20.6234 20.339C20.5361 20.339 20.4503 20.3456 20.3661 20.3574L19.7132 19.2266C20.0012 19.1377 20.307 19.0896 20.6237 19.0896C22.1332 19.0896 23.3927 20.1769 23.662 21.6093ZM17.5317 22.1817C17.5317 21.2413 17.9542 20.3982 18.6187 19.8307L19.2609 20.9429C18.9631 21.2704 18.7813 21.7053 18.7813 22.182C18.7813 22.6218 18.9366 23.0262 19.1948 23.3435L18.5452 24.4688C17.9229 23.9028 17.5317 23.0871 17.5317 22.1817ZM20.6238 25.2738C20.2727 25.2738 19.9354 25.2141 19.6205 25.1058L20.265 23.9896C20.381 24.0126 20.5008 24.025 20.6234 24.025C21.4006 24.025 22.0667 23.541 22.3375 22.8593H23.6402C23.3303 24.2393 22.096 25.2738 20.6238 25.2738Z" fill="#30C1E1"/>
</g>
<defs>
<clipPath id="clip0_2006_6276">
<rect width="20" height="20" fill="white" transform="translate(8 7)"/>
</clipPath>
</defs>
</svg>
