<svg width="35" height="35" viewBox="0 0 35 35" fill="none" xmlns="http://www.w3.org/2000/svg">
<rect width="35" height="35" rx="17.5" fill="#70E7AE" fill-opacity="0.15"/>
<path d="M18.4101 8.77295C17.6328 8.77295 16.8554 8.83193 16.0781 8.94912C14.9219 9.96787 14.3047 11.7343 14.3047 13.4569C14.3047 14.246 14.4336 15.0116 14.6797 15.6835C14.9336 15.6718 15.1836 15.664 15.4375 15.664C16.1601 15.6327 16.6562 15.664 17.2578 15.7655C17.0195 15.0468 16.9023 14.2538 16.9023 13.4569C16.9023 11.7499 17.4336 9.97646 18.5469 8.77607H18.4101V8.77295ZM19.539 8.81748C18.2773 9.81045 17.6054 11.6562 17.6054 13.4569C17.6054 14.3241 17.7578 15.1601 18.0547 15.8749C18.5234 15.9491 18.9883 16.0429 19.457 16.1562C19.6836 16.164 19.9062 16.2108 20.1172 16.289C19.6484 15.4608 19.375 14.3866 19.375 13.2108C19.375 11.9687 19.6797 10.837 20.1992 9.99287C20.4414 9.59639 20.7422 9.25811 21.082 9.01123C20.5664 8.92139 20.0547 8.85615 19.539 8.81748ZM14.9179 9.16709C14.7929 9.196 14.664 9.22607 14.5351 9.25811L14.5195 9.26201L14.5078 9.26592C11.7808 9.72021 11.1492 13.7851 12.6133 15.9101C13.0586 15.8319 13.5039 15.7733 13.9492 15.7304C13.7187 15.0233 13.6015 14.2421 13.6015 13.4569C13.6015 11.9257 14.0273 10.3437 14.9179 9.16709ZM22.3672 9.27295C21.7929 9.27295 21.2344 9.65342 20.8008 10.3616C20.3633 11.0702 20.0781 12.0858 20.0781 13.2108C20.0781 14.3358 20.3633 15.3515 20.8008 16.0585C21.2344 16.7694 21.7929 17.1483 22.3672 17.1483C22.9414 17.1483 23.5 16.7694 23.9336 16.0585C24.3711 15.3515 24.6562 14.3358 24.6562 13.2108C24.6562 12.0858 24.3711 11.0702 23.9336 10.3616C23.5 9.65342 22.9414 9.27295 22.3672 9.27295ZM22.3633 14.5077H22.3711C22.6523 14.5116 22.8242 14.7147 22.914 14.8983C23.0039 15.0819 23.0469 15.289 23.0469 15.5194C23.0469 15.7499 23.0039 15.9569 22.914 16.1405C22.8242 16.3241 22.6523 16.5272 22.3711 16.5312H22.3633C22.082 16.5272 21.9101 16.3241 21.8203 16.1405C21.7304 15.9569 21.6875 15.7499 21.6875 15.5194C21.6875 15.289 21.7304 15.0819 21.8203 14.8983C21.9101 14.7147 22.082 14.5116 22.3633 14.5077ZM15.4375 16.3632C14.664 16.3632 13.8867 16.4218 13.1094 16.539C11.9531 17.5585 11.334 19.3202 11.334 21.0429C11.334 22.6835 11.8824 24.2187 12.9101 25.0233C13.7344 25.1562 14.5586 25.2265 15.3789 25.2265C14.4023 24.2147 13.9336 22.6366 13.9336 21.0468C13.9336 19.3358 14.4609 17.5624 15.5781 16.3632H15.4375ZM16.5703 16.4062C15.3047 17.3983 14.6328 19.246 14.6328 21.0468C14.6328 22.8046 15.2656 24.4452 16.4492 25.1952C17.0039 25.1562 17.5586 25.0897 18.1133 24.996C17.7734 24.746 17.4765 24.4101 17.2344 24.0155C16.7148 23.1679 16.4101 22.039 16.4101 20.7968C16.4101 19.5546 16.7148 18.4257 17.2344 17.5819C17.4765 17.1874 17.7734 16.8476 18.1094 16.6015C17.5937 16.5116 17.082 16.4452 16.5703 16.4062ZM11.9453 16.7616C11.816 16.789 11.6914 16.8202 11.5652 16.8515H11.5484L11.5363 16.8554C7.98822 17.4452 7.98822 24.1522 11.5363 24.7421L11.5484 24.746H11.5652L11.7078 24.7812C10.9808 23.7812 10.6328 22.4179 10.6328 21.0429C10.6328 19.5155 11.0578 17.9335 11.9453 16.7616ZM19.3984 16.8593C18.8242 16.8593 18.2695 17.2421 17.832 17.9491C17.3945 18.6562 17.1094 19.6718 17.1094 20.7968C17.1094 21.9257 17.3945 22.9374 17.832 23.6483C18.2695 24.3554 18.8242 24.7382 19.3984 24.7382C19.9726 24.7382 20.5273 24.3554 20.9648 23.6483C21.4023 22.9374 21.6875 21.9257 21.6875 20.7968C21.6875 19.6718 21.4023 18.6562 20.9648 17.9491C20.5273 17.2421 19.9726 16.8593 19.3984 16.8593ZM24.8281 16.8593C24.4804 16.8632 24.1367 17.0038 23.8203 17.2772C23.8125 17.2851 23.8047 17.2929 23.7969 17.2968C23.6054 17.4687 23.4258 17.6874 23.2656 17.953C22.832 18.6601 22.5469 19.6718 22.5469 20.7968C22.5469 21.9218 22.832 22.9374 23.2695 23.6444C23.7031 24.3554 24.2617 24.7343 24.8359 24.7343C25.4101 24.7343 25.9687 24.3554 26.4023 23.6444C26.8398 22.9374 27.125 21.9218 27.125 20.7968C27.125 19.6718 26.8398 18.6562 26.4023 17.9491C25.9687 17.2382 25.4101 16.8593 24.8359 16.8593H24.8281ZM19.3984 22.0976C19.6797 22.0976 19.8554 22.3007 19.9492 22.4843C20.039 22.6679 20.0781 22.8749 20.0781 23.1093C20.0781 23.3397 20.039 23.5507 19.9492 23.7304C19.8554 23.9179 19.6797 24.1171 19.3984 24.1171C19.1172 24.1171 18.9414 23.9179 18.8515 23.7304C18.7578 23.5507 18.7187 23.3397 18.7187 23.1093C18.7187 22.8749 18.7578 22.6679 18.8515 22.4843C18.9414 22.3007 19.1172 22.0976 19.3984 22.0976ZM24.832 22.0976H24.8398C25.1211 22.1015 25.2929 22.3046 25.3828 22.4882C25.4726 22.6718 25.5156 22.8788 25.5156 23.1093C25.5156 23.3397 25.4726 23.5468 25.3828 23.7304C25.2929 23.914 25.1211 24.1171 24.8398 24.121H24.832C24.5508 24.1171 24.3789 23.914 24.289 23.7304C24.1992 23.5468 24.1562 23.3397 24.1562 23.1093C24.1562 22.8788 24.1992 22.6718 24.289 22.4882C24.3789 22.3046 24.5508 22.1015 24.832 22.0976ZM22.1172 22.7538C21.9804 23.2187 21.7929 23.6444 21.5664 24.0155C21.2344 24.5468 20.8086 24.9765 20.3203 25.2187C21.3945 25.2538 22.4726 25.1835 23.5469 24.996C23.2109 24.7499 22.9101 24.4101 22.6679 24.0155C22.4414 23.6444 22.2539 23.2187 22.1172 22.7538Z" fill="#70E7AE"/>
</svg>
